# xmcd
#
# Track frame offsets:
#	150
#	17067
#	28170
#	53021
#	68025
#	86325
#	100097
#	111633
#	126706
#	137593
#	150772
#	164531
#	175956
#	186066
#	194843
#
# Disc length: 2766 seconds
#
# Revision: 5
# Processed by: cddbd v1.5.2PL0 Copyright (c) Steve Scherf et al.
# Submitted via: EZCDAudioConverter 2.1.7.1
#
DISCID=cf0acc0f
DTITLE=V/A - Boss Sounds!
DYEAR=2010
DGENRE=MOJO
TTITLE0=Joe Strummer and The Mescaleros - Coma Girl
TTITLE1=Amos Milburn - Chicken Shack Boogie
TTITLE2=Alan Vega - Dujang Prang
TTITLE3=Calexico - Across The Wire
TTITLE4=Bright Eyes - We Are Nowhere And It's Now
TTITLE5=Ron Sexsmith - Comrades Fill No Glass For Me
TTITLE6=Stanley Brothers - The Drunkard's Hell
TTITLE7=Mississippi Sheiks - The World Is Going Wrong
TTITLE8=Dave Van Ronk - Did You Hear John Hurt?
TTITLE9=Handsome Family - Fallen Peaches
TTITLE10=Evan Dando - Hard Drive
TTITLE11=Neko Case - This Little Light
TTITLE12=Jimmy Reed - Take Out Some Insurance
TTITLE13=Ramblin' Jack Elliott - Roll On Buddy
TTITLE14=Bukka White - Fixin' To Die Blues
EXTD=
EXTT0=
EXTT1=
EXTT2=
EXTT3=
EXTT4=
EXTT5=
EXTT6=
EXTT7=
EXTT8=
EXTT9=
EXTT10=
EXTT11=
EXTT12=
EXTT13=
EXTT14=
PLAYORDER=
